<svg id="Layer_2" data-name="Layer 2" xmlns="http://www.w3.org/2000/svg" width="233.571" height="96.38" viewBox="0 0 233.571 96.38">
  <g id="Camada_1" data-name="Camada 1">
    <g id="Logo">
      <path id="Caminho_1" data-name="Caminho 1" d="M232.28,32.9a18.84,18.84,0,0,0-3.95-6.42,18.54,18.54,0,0,0-6.47-4.43,23.2,23.2,0,0,0-9-1.62A22.11,22.11,0,0,0,203,22.85a27.38,27.38,0,0,0-7.57,5.73l-.27.29,6.74,5.82.25-.27a14.7,14.7,0,0,1,4.82-3.5,14.33,14.33,0,0,1,5.9-1.23,12,12,0,0,1,4.84.9A10.16,10.16,0,0,1,221.1,33a10,10,0,0,1,2,3.41,12.49,12.49,0,0,1,.67,4.12v.82H209.72a30.19,30.19,0,0,0-8.6,1.09,16.92,16.92,0,0,0-6,3.06,12.59,12.59,0,0,0-4.66,10,14.62,14.62,0,0,0,1.19,5.89,14.33,14.33,0,0,0,3.41,4.79,15.87,15.87,0,0,0,5.44,3.26,21.21,21.21,0,0,0,7.32,1.19A19.3,19.3,0,0,0,218,67.88a17.71,17.71,0,0,0,5.75-5.44v7.17h9.82V40.5a21.789,21.789,0,0,0-1.29-7.6Zm-9.75,21.55a13,13,0,0,1-3.26,4A15.36,15.36,0,0,1,214.72,61a15.2,15.2,0,0,1-5.09.91,10.91,10.91,0,0,1-6.58-1.84,5.5,5.5,0,0,1-2.45-4.68,5.17,5.17,0,0,1,2.14-4.22c1.44-1.15,3.79-1.73,7-1.73h14.07a11.26,11.26,0,0,1-1.28,5.01Z" fill="#606060"/>
      <rect id="Retângulo_1" data-name="Retângulo 1" width="9.81" height="47.56" transform="translate(0 22.12)" fill="#606060"/>
      <path id="Caminho_2" data-name="Caminho 2" d="M44.86,21.27A61.47,61.47,0,0,0,28.18,23.7a13.65,13.65,0,0,0-7.41-1.92H19.51v47.9h9.81V31.77A44.34,44.34,0,0,1,42,29.64c9.69,0,11.72,5.77,11.72,10.62V69.68h9.81V39.49c0-5.86-1.67-10.44-5-13.59S50.71,21.27,44.86,21.27Z" fill="#606060"/>
      <path id="Caminho_3" data-name="Caminho 3" d="M136.5,69.68h9.81V0L136.5,2.74Z" fill="#606060"/>
      <path id="Caminho_4" data-name="Caminho 4" d="M156.02,69.68h9.8V0l-9.8,2.74Z" fill="#606060"/>
      <rect id="Retângulo_2" data-name="Retângulo 2" width="9.81" height="47.56" transform="translate(175.53 22.12)" fill="#606060"/>
      <rect id="Retângulo_3" data-name="Retângulo 3" width="9.81" height="47.56" transform="translate(116.98 22.12)" fill="#606060"/>
      <path id="Caminho_5" data-name="Caminho 5" d="M102.37,23.2a305.348,305.348,0,0,1-13,30.56,281.8,281.8,0,0,1-13-30.56l-.31-.9H65.33l.75,1.85A428.852,428.852,0,0,0,87.92,69.77l.38.7h2.18l.38-.7A465.3,465.3,0,0,0,112.7,24.15l.76-1.85H102.69Z" fill="#606060"/>
    </g>
    <g id="Grupo_1" data-name="Grupo 1" transform="translate(-5.28)">
      <path id="Caminho_6" data-name="Caminho 6" d="M28.132,93.323a3.809,3.809,0,0,1-2.027-.552,3.661,3.661,0,0,1-1.348-1.56,6.452,6.452,0,0,1,0-4.871,3.512,3.512,0,0,1,1.348-1.549,3.81,3.81,0,0,1,2.048-.541,3.48,3.48,0,0,1,2.048.594,2.876,2.876,0,0,1,1.146,1.634h-.212l.191-2.122h1.358l-.1,1.061v7.736H31.114V91.105H31.3a2.78,2.78,0,0,1-1.157,1.624,3.523,3.523,0,0,1-2.016.594Zm.276-1.157a2.462,2.462,0,0,0,1.942-.86,4.743,4.743,0,0,0,0-5.062,2.462,2.462,0,0,0-1.984-.86,2.494,2.494,0,0,0-1.984.86,4.68,4.68,0,0,0,0,5.062,2.494,2.494,0,0,0,2.027.86Z" transform="translate(0 -0.742)" fill="#606060"/>
      <path id="Caminho_7" data-name="Caminho 7" d="M42.821,93.338a4.9,4.9,0,0,1-2.388-.552,3.969,3.969,0,0,1-1.581-1.6,5.136,5.136,0,0,1-.552-2.462,5.04,5.04,0,0,1,.562-2.451,3.894,3.894,0,0,1,1.581-1.549,4.977,4.977,0,0,1,2.377-.541,5.73,5.73,0,0,1,1.7.265,3.353,3.353,0,0,1,1.348.785l-.658,1.517a3.183,3.183,0,0,0-1.061-.658,3.109,3.109,0,0,0-1.135-.212,2.313,2.313,0,0,0-1.825.732,3.1,3.1,0,0,0-.658,2.122,3.183,3.183,0,0,0,.658,2.122,2.26,2.26,0,0,0,1.825.753,3.183,3.183,0,0,0,1.125-.191A3.258,3.258,0,0,0,45.2,90.78l.658,1.5a3.661,3.661,0,0,1-1.369.785A5.093,5.093,0,0,1,42.821,93.338Z" transform="translate(0.857 -0.746)" fill="#606060"/>
      <path id="Caminho_8" data-name="Caminho 8" d="M51.037,93.338a4.711,4.711,0,0,1-2.356-.552,3.862,3.862,0,0,1-1.549-1.592,5.677,5.677,0,0,1,0-4.881,3.873,3.873,0,0,1,1.549-1.57,4.722,4.722,0,0,1,2.356-.562,4.818,4.818,0,0,1,2.366.562,3.81,3.81,0,0,1,1.549,1.571,5.677,5.677,0,0,1,0,4.881,3.8,3.8,0,0,1-1.56,1.592A4.817,4.817,0,0,1,51.037,93.338Zm0-1.677a2,2,0,0,0,1.634-.722,4.192,4.192,0,0,0,0-4.372,2.016,2.016,0,0,0-1.634-.711,2.059,2.059,0,0,0-1.645.711,4.245,4.245,0,0,0,0,4.372A2.027,2.027,0,0,0,51.037,91.661Z" transform="translate(1.363 -0.746)" fill="#606060"/>
      <path id="Caminho_9" data-name="Caminho 9" d="M56.766,93.168V85.5a3.575,3.575,0,0,0-.106-1.061h2.122l.138,1.677h-.212A2.982,2.982,0,0,1,59.833,84.7a3.183,3.183,0,0,1,1.8-.509,2.929,2.929,0,0,1,1.74.5,2.653,2.653,0,0,1,.966,1.539h-.276a3.067,3.067,0,0,1,1.2-1.486,3.4,3.4,0,0,1,1.921-.552,2.727,2.727,0,0,1,2.218.87,4.245,4.245,0,0,1,.732,2.727v5.391H67.951V87.873a2.61,2.61,0,0,0-.318-1.517,1.337,1.337,0,0,0-1.125-.467,1.762,1.762,0,0,0-1.433.637,2.674,2.674,0,0,0-.541,1.708v4.924H62.326V87.851a2.515,2.515,0,0,0-.35-1.507,1.316,1.316,0,0,0-1.125-.467,1.74,1.74,0,0,0-1.422.637,2.674,2.674,0,0,0-.478,1.719v4.924Z" transform="translate(1.98 -0.746)" fill="#606060"/>
      <path id="Caminho_10" data-name="Caminho 10" d="M71.556,96.93V85.491a7.051,7.051,0,0,0-.106-1.061h2.122l.2,1.857h-.255a2.568,2.568,0,0,1,1.061-1.475,3.481,3.481,0,0,1,1.963-.552,3.608,3.608,0,0,1,3.406,2.122,5.73,5.73,0,0,1,.573,2.366,5.815,5.815,0,0,1-.488,2.462,3.565,3.565,0,0,1-3.406,2.122,3.512,3.512,0,0,1-1.942-.541,2.632,2.632,0,0,1-1.061-1.443h.191V96.93Zm4.425-5.306a2.122,2.122,0,0,0,1.677-.722,4.128,4.128,0,0,0,0-4.372,2.3,2.3,0,0,0-3.332,0,4.128,4.128,0,0,0,0,4.372,2.122,2.122,0,0,0,1.655.753Z" transform="translate(2.884 -0.741)" fill="#606060"/>
      <path id="Caminho_11" data-name="Caminho 11" d="M85.223,93.338a3.534,3.534,0,0,1-3.385-2.122,5.667,5.667,0,0,1-.488-2.462,5.582,5.582,0,0,1,.488-2.451,3.661,3.661,0,0,1,1.263-1.57,3.7,3.7,0,0,1,2.122-.552,3.481,3.481,0,0,1,1.963.552,2.632,2.632,0,0,1,1.125,1.475H88.12l.191-1.857h2.122l-.1,1.061v7.672H88.216v-1.73h.2A2.536,2.536,0,0,1,87.282,92.8a3.5,3.5,0,0,1-2.059.541Zm.6-1.677a2.122,2.122,0,0,0,1.666-.722,4.128,4.128,0,0,0,0-4.372,2.292,2.292,0,0,0-3.321,0,4.16,4.16,0,0,0,0,4.372,2.122,2.122,0,0,0,1.6.722Z" transform="translate(3.489 -0.746)" fill="#606060"/>
      <path id="Caminho_12" data-name="Caminho 12" d="M95.114,93.338a7.618,7.618,0,0,1-2.122-.265,4.627,4.627,0,0,1-1.592-.764l.637-1.464a5.178,5.178,0,0,0,1.464.7,5.741,5.741,0,0,0,1.624.244,2.281,2.281,0,0,0,1.305-.3.934.934,0,0,0,.424-.806.806.806,0,0,0-.265-.637,1.974,1.974,0,0,0-.87-.35l-1.74-.34a3.183,3.183,0,0,1-1.7-.838,2.122,2.122,0,0,1-.594-1.549,2.43,2.43,0,0,1,.446-1.443,2.876,2.876,0,0,1,1.273-.987,4.818,4.818,0,0,1,1.952-.361,6.091,6.091,0,0,1,1.836.265,3.884,3.884,0,0,1,1.464.785l-.637,1.411a4.245,4.245,0,0,0-1.231-.679,3.969,3.969,0,0,0-1.369-.244,2.218,2.218,0,0,0-1.326.318,1,1,0,0,0-.414.828.86.86,0,0,0,.255.637,1.645,1.645,0,0,0,.785.382l1.751.329a3.48,3.48,0,0,1,1.772.8,2,2,0,0,1,.6,1.539,2.43,2.43,0,0,1-.446,1.507,2.971,2.971,0,0,1-1.305.955,5.306,5.306,0,0,1-1.984.329Z" transform="translate(4.104 -0.746)" fill="#606060"/>
      <path id="Caminho_13" data-name="Caminho 13" d="M103.354,93.338a7.618,7.618,0,0,1-2.122-.265,4.626,4.626,0,0,1-1.592-.764l.6-1.464a5.178,5.178,0,0,0,1.464.7,5.741,5.741,0,0,0,1.624.244,2.281,2.281,0,0,0,1.305-.3.934.934,0,0,0,.424-.806.838.838,0,0,0-.265-.637,2.027,2.027,0,0,0-.87-.35l-1.74-.34a3.247,3.247,0,0,1-1.708-.838,2.122,2.122,0,0,1-.584-1.549,2.43,2.43,0,0,1,.446-1.443,2.876,2.876,0,0,1,1.273-.987,4.765,4.765,0,0,1,1.942-.361,6.112,6.112,0,0,1,1.846.265,3.767,3.767,0,0,1,1.454.785l-.626,1.411a4.138,4.138,0,0,0-1.242-.679,3.873,3.873,0,0,0-1.358-.244,2.2,2.2,0,0,0-1.326.318,1,1,0,0,0-.414.828.859.859,0,0,0,.255.637,1.549,1.549,0,0,0,.785.382l1.751.329a3.48,3.48,0,0,1,1.772.8,2.027,2.027,0,0,1,.594,1.539,2.43,2.43,0,0,1-.467,1.507,3.035,3.035,0,0,1-1.305.955,5.305,5.305,0,0,1-1.921.329Z" transform="translate(4.607 -0.746)" fill="#606060"/>
      <path id="Caminho_14" data-name="Caminho 14" d="M108.18,92.79V90.36h2.451v2.43Z" transform="translate(5.13 -0.368)" fill="#606060"/>
      <path id="Caminho_15" data-name="Caminho 15" d="M115.667,93.328a3.109,3.109,0,0,1-2.419-.86,3.947,3.947,0,0,1-.806-2.727v-5.4h2.186v5.306a2.122,2.122,0,0,0,.393,1.443,1.56,1.56,0,0,0,1.231.467,1.952,1.952,0,0,0,1.507-.637,2.3,2.3,0,0,0,.584-1.634V84.34h2.122v8.818h-2.122V91.407h.244a3.183,3.183,0,0,1-1.157,1.454,3.247,3.247,0,0,1-1.761.467Z" transform="translate(5.389 -0.736)" fill="#606060"/>
      <path id="Caminho_16" data-name="Caminho 16" d="M126.256,93.338a4.743,4.743,0,0,1-2.356-.552,3.926,3.926,0,0,1-1.549-1.592,5.773,5.773,0,0,1,0-4.881,3.937,3.937,0,0,1,1.549-1.57,5.242,5.242,0,0,1,4.722,0,3.81,3.81,0,0,1,1.549,1.571,5.677,5.677,0,0,1,0,4.881,3.8,3.8,0,0,1-1.549,1.592A4.786,4.786,0,0,1,126.256,93.338Zm0-1.677a2.027,2.027,0,0,0,1.645-.722,4.245,4.245,0,0,0,0-4.372,2.26,2.26,0,0,0-3.29,0,4.245,4.245,0,0,0,0,4.372,2.027,2.027,0,0,0,1.645.722Z" transform="translate(5.963 -0.746)" fill="#606060"/>
      <path id="Caminho_17" data-name="Caminho 17" d="M132,93.39V80.55h2.175V93.39Z" transform="translate(6.586 -0.968)" fill="#606060"/>
      <path id="Caminho_18" data-name="Caminho 18" d="M144.5,93.323a4.329,4.329,0,0,1-2.239-.562,3.672,3.672,0,0,1-1.464-1.592,5.306,5.306,0,0,1-.52-2.441,5.168,5.168,0,0,1,.52-2.43,3.6,3.6,0,0,1,1.475-1.528,4.86,4.86,0,0,1,3.863-.223,3.417,3.417,0,0,1,1.316.838l-.509,1.061a3.576,3.576,0,0,0-1.146-.753,3.321,3.321,0,0,0-1.21-.244,2.663,2.663,0,0,0-2.122.86,3.671,3.671,0,0,0-.753,2.494,3.81,3.81,0,0,0,.753,2.515,2.61,2.61,0,0,0,2.122.891,3.576,3.576,0,0,0,1.2-.233,3.247,3.247,0,0,0,1.157-.753l.509,1a3.587,3.587,0,0,1-1.348.86,4.743,4.743,0,0,1-1.6.244Z" transform="translate(7.092 -0.742)" fill="#606060"/>
      <path id="Caminho_19" data-name="Caminho 19" d="M152.559,93.323a4.329,4.329,0,0,1-2.2-.552,3.671,3.671,0,0,1-1.433-1.57,6,6,0,0,1,0-4.839,3.671,3.671,0,0,1,1.433-1.57,4.754,4.754,0,0,1,4.4,0,3.767,3.767,0,0,1,1.443,1.57,5.889,5.889,0,0,1,0,4.839,3.767,3.767,0,0,1-1.443,1.57A4.34,4.34,0,0,1,152.559,93.323Zm0-1.157a2.462,2.462,0,0,0,1.984-.86,4.743,4.743,0,0,0,0-5.062,2.706,2.706,0,0,0-3.958,0,4.743,4.743,0,0,0,0,5.062,2.462,2.462,0,0,0,1.974.86Z" transform="translate(7.59 -0.742)" fill="#606060"/>
      <path id="Caminho_20" data-name="Caminho 20" d="M158.326,93.166V85.43l-.1-1.061h1.358l.17,1.921h-.2a3.045,3.045,0,0,1,1.061-1.528,3.109,3.109,0,0,1,1.846-.541,2.844,2.844,0,0,1,1.783.52,2.685,2.685,0,0,1,.934,1.624h-.265a2.982,2.982,0,0,1,1.178-1.57,3.364,3.364,0,0,1,1.952-.573,2.748,2.748,0,0,1,2.175.828,3.873,3.873,0,0,1,.732,2.61v5.475h-1.411V87.775a2.982,2.982,0,0,0-.435-1.8,1.634,1.634,0,0,0-1.39-.573,2.122,2.122,0,0,0-1.74.764,3.035,3.035,0,0,0-.637,2.027v4.977h-1.411V87.775a2.982,2.982,0,0,0-.435-1.8,1.666,1.666,0,0,0-1.4-.573,2.122,2.122,0,0,0-1.73.764,3.088,3.088,0,0,0-.626,2.027v4.977Z" transform="translate(8.19 -0.744)" fill="#606060"/>
      <path id="Caminho_21" data-name="Caminho 21" d="M172.765,96.931v-11.5a9.6,9.6,0,0,0-.1-1.061h1.369l.191,2.122h-.212a2.855,2.855,0,0,1,1.125-1.645,3.438,3.438,0,0,1,2.037-.594,3.82,3.82,0,0,1,2.059.541,3.65,3.65,0,0,1,1.348,1.549,5.529,5.529,0,0,1,.488,2.441,5.677,5.677,0,0,1-.477,2.43,3.682,3.682,0,0,1-1.358,1.56,3.8,3.8,0,0,1-2.059.552,3.449,3.449,0,0,1-2.016-.594,2.748,2.748,0,0,1-1.135-1.624h.191v5.826Zm4.1-4.765a2.483,2.483,0,0,0,1.995-.86,4.68,4.68,0,0,0,0-5.062,2.738,2.738,0,0,0-3.979,0,4.68,4.68,0,0,0,0,5.062A2.494,2.494,0,0,0,176.861,92.166Z" transform="translate(9.072 -0.742)" fill="#606060"/>
      <path id="Caminho_22" data-name="Caminho 22" d="M185.983,93.323a3.8,3.8,0,0,1-2.037-.552,3.756,3.756,0,0,1-1.358-1.56,6.452,6.452,0,0,1,0-4.871,3.6,3.6,0,0,1,1.358-1.549,3.8,3.8,0,0,1,2.037-.541,3.449,3.449,0,0,1,2.048.594,2.78,2.78,0,0,1,1.146,1.634h-.212l.2-2.122h1.316l-.1,1.061v7.736h-1.422V91.105h.2a2.78,2.78,0,0,1-1.157,1.624,3.534,3.534,0,0,1-2.027.594Zm.287-1.157a2.462,2.462,0,0,0,1.984-.86,4.743,4.743,0,0,0,0-5.062,2.462,2.462,0,0,0-1.984-.86,2.494,2.494,0,0,0-1.984.86,4.68,4.68,0,0,0,0,5.062,2.494,2.494,0,0,0,1.952.86Z" transform="translate(9.65 -0.742)" fill="#606060"/>
      <path id="Caminho_23" data-name="Caminho 23" d="M192.5,93.166V85.43l-.1-1.061h1.358l.17,1.921h-.2a2.971,2.971,0,0,1,1.231-1.539,3.534,3.534,0,0,1,1.963-.531,3.109,3.109,0,0,1,2.345.828,3.661,3.661,0,0,1,.8,2.61v5.475H198.64V87.775a2.7,2.7,0,0,0-.488-1.8A1.953,1.953,0,0,0,196.6,85.4a2.568,2.568,0,0,0-1.942.753,2.78,2.78,0,0,0-.711,2.006v5.009Z" transform="translate(10.279 -0.744)" fill="#606060"/>
      <path id="Caminho_24" data-name="Caminho 24" d="M201.838,97.113l-.329-1.167a6.908,6.908,0,0,0,1.369-.446,2.727,2.727,0,0,0,.923-.669,4.17,4.17,0,0,0,.626-1.061l.456-1.061V93.3L201,84.39h1.539l3.183,7.7h-.478l3.183-7.7h1.486l-4.054,9.55a6.59,6.59,0,0,1-.764,1.4,4.245,4.245,0,0,1-.9.934,4.16,4.16,0,0,1-1.061.562A7.077,7.077,0,0,1,201.838,97.113Z" transform="translate(10.805 -0.733)" fill="#606060"/>
    </g>
  </g>
</svg>
